<?xml version="1.0" encoding="utf-8"?>
<!-- Generator: Adobe Illustrator 22.1.0, SVG Export Plug-In . SVG Version: 6.00 Build 0)  -->
<svg version="1.1" id="Layer_1" xmlns="http://www.w3.org/2000/svg" xmlns:xlink="http://www.w3.org/1999/xlink" x="0px" y="0px"
	 viewBox="0 0 100 100" style="enable-background:new 0 0 100 100;" xml:space="preserve">
<path d="M50.1,1.4C23.2,1.4,1.4,23.2,1.4,50.1s21.8,48.7,48.7,48.7S98.8,77,98.8,50.1S77,1.4,50.1,1.4z M80.6,71.9l-8.7,8.7
	c-0.5,0.5-1.3,0.5-1.8,0l-20-20l-20,20c-0.5,0.5-1.3,0.5-1.8,0l-8.7-8.7c-0.5-0.5-0.5-1.3,0-1.8l20-20l-20-20
	c-0.5-0.5-0.5-1.3,0-1.8l8.6-8.7c0.5-0.5,1.3-0.5,1.8,0l20,20l20-20c0.5-0.5,1.3-0.5,1.8,0l8.7,8.6c0.5,0.5,0.5,1.3,0,1.8l-20,20
	l20.1,20.1C81.1,70.6,81.1,71.4,80.6,71.9z"/>
</svg>
